<?xml version="1.0" encoding="utf-8"?>
<!-- Generator: Adobe Illustrator 21.1.0, SVG Export Plug-In . SVG Version: 6.00 Build 0)  -->
<svg version="1.1" id="Capa_1" xmlns="http://www.w3.org/2000/svg" xmlns:xlink="http://www.w3.org/1999/xlink" x="0px" y="0px"
	 viewBox="0 0 397.8 397.8" style="enable-background:new 0 0 397.8 397.8;" xml:space="preserve">
<style type="text/css">
	.st0{fill:#323A45;}
</style>
<g>
	<g>
		<rect x="73.7" y="139.9" class="st0" width="15" height="23.5"/>
		<rect x="96.1" y="139.9" class="st0" width="15" height="23.5"/>
		<rect x="127.8" y="139.9" class="st0" width="15" height="23.5"/>
		<rect x="150.2" y="139.9" class="st0" width="15" height="23.5"/>
		<rect x="181.9" y="139.9" class="st0" width="15" height="23.5"/>
		<rect x="204.4" y="139.9" class="st0" width="15" height="23.5"/>
		<rect x="236" y="139.9" class="st0" width="15" height="23.5"/>
		<rect x="258.5" y="139.9" class="st0" width="15" height="23.5"/>
		<rect x="290.2" y="139.9" class="st0" width="15" height="23.5"/>
		<rect x="312.6" y="139.9" class="st0" width="15" height="23.5"/>
		<rect x="73.7" y="189" class="st0" width="15" height="23.5"/>
		<rect x="96.1" y="189" class="st0" width="15" height="23.5"/>
		<rect x="127.8" y="189" class="st0" width="15" height="23.5"/>
		<rect x="150.2" y="189" class="st0" width="15" height="23.5"/>
		<rect x="181.9" y="189" class="st0" width="15" height="23.5"/>
		<rect x="204.4" y="189" class="st0" width="15" height="23.5"/>
		<rect x="236" y="189" class="st0" width="15" height="23.5"/>
		<rect x="258.5" y="189" class="st0" width="15" height="23.5"/>
		<rect x="290.2" y="189" class="st0" width="15" height="23.5"/>
		<rect x="312.6" y="189" class="st0" width="15" height="23.5"/>
		<rect x="73.7" y="238.1" class="st0" width="15" height="23.5"/>
		<rect x="96.1" y="238.1" class="st0" width="15" height="23.5"/>
		<rect x="127.8" y="238.1" class="st0" width="15" height="23.5"/>
		<rect x="150.2" y="238.1" class="st0" width="15" height="23.5"/>
		<rect x="181.9" y="238.1" class="st0" width="15" height="23.5"/>
		<rect x="204.4" y="238.1" class="st0" width="15" height="23.5"/>
		<rect x="236" y="238.1" class="st0" width="15" height="23.5"/>
		<rect x="258.5" y="238.1" class="st0" width="15" height="23.5"/>
		<rect x="290.2" y="238.1" class="st0" width="15" height="23.5"/>
		<rect x="312.6" y="238.1" class="st0" width="15" height="23.5"/>
		<rect x="73.7" y="287.2" class="st0" width="15" height="23.5"/>
		<rect x="96.1" y="287.2" class="st0" width="15" height="23.5"/>
		<rect x="127.8" y="287.2" class="st0" width="15" height="23.5"/>
		<rect x="150.2" y="287.2" class="st0" width="15" height="23.5"/>
		<rect x="181.9" y="287.2" class="st0" width="15" height="23.5"/>
		<rect x="204.4" y="287.2" class="st0" width="15" height="23.5"/>
		<rect x="236" y="287.2" class="st0" width="15" height="23.5"/>
		<rect x="258.5" y="287.2" class="st0" width="15" height="23.5"/>
		<rect x="290.2" y="287.2" class="st0" width="15" height="23.5"/>
		<rect x="312.6" y="287.2" class="st0" width="15" height="23.5"/>
		<rect x="73.7" y="336.3" class="st0" width="15" height="23.5"/>
		<rect x="96.1" y="336.3" class="st0" width="15" height="23.5"/>
		<rect x="127.8" y="336.3" class="st0" width="15" height="23.5"/>
		<rect x="150.2" y="336.3" class="st0" width="15" height="23.5"/>
		<rect x="236" y="336.3" class="st0" width="15" height="23.5"/>
		<rect x="258.5" y="336.3" class="st0" width="15" height="23.5"/>
		<rect x="290.2" y="336.3" class="st0" width="15" height="23.5"/>
		<rect x="312.6" y="336.3" class="st0" width="15" height="23.5"/>
		<path class="st0" d="M381.9,382.8h-30.8V114.4c0-4.1-3.4-7.5-7.5-7.5h-9.1V43.9h2.4c4.1,0,7.5-3.4,7.5-7.5V7.5
			c0-4.1-3.4-7.5-7.5-7.5h-276c-4.1,0-7.5,3.4-7.5,7.5v28.9c0,4.1,3.4,7.5,7.5,7.5h2.4v63.1h-9.1c-4.1,0-7.5,3.4-7.5,7.5v268.4H15.9
			c-4.1,0-7.5,3.4-7.5,7.5s3.4,7.5,7.5,7.5h366c4.1,0,7.5-3.4,7.5-7.5S386.1,382.8,381.9,382.8z M68.4,15h261v13.9h-261V15z
			 M78.3,43.9h241.2v63.1h-13.4V77.6c0-12-9.8-21.7-21.8-21.7c-12,0-21.7,9.8-21.7,21.7v29.3h-13.5V77.6c0-12-9.8-21.7-21.8-21.7
			c-12,0-21.7,9.8-21.7,21.7v29.3h-13.5V77.6c0-12-9.8-21.7-21.8-21.7c-12,0-21.7,9.8-21.7,21.7v29.3h-13.5V77.6
			c0-12-9.8-21.7-21.7-21.7s-21.7,9.8-21.7,21.7v29.3H78.3V43.9z M291.2,106.9h-13.5V77.6c0-3.7,3-6.7,6.7-6.7s6.8,3,6.8,6.7V106.9z
			 M234.2,106.9h-13.5V77.6c0-3.7,3-6.7,6.7-6.7s6.8,3,6.8,6.7V106.9z M177.2,106.9h-13.5V77.6c0-3.7,3-6.7,6.7-6.7s6.8,3,6.8,6.7
			V106.9z M120.2,106.9h-13.5V77.6c0-3.7,3-6.7,6.7-6.7s6.7,3,6.7,6.7V106.9z M204.4,382.8h-7.4v-31.6h7.4V382.8z M219.4,382.8
			v-39.1c0-4.1-3.4-7.5-7.5-7.5h-22.4c-4.1,0-7.5,3.4-7.5,7.5v39.1H61.7V121.9h274.5v260.9L219.4,382.8L219.4,382.8z"/>
	</g>
</g>
</svg>
