<?xml version="1.0" encoding="utf-8"?>
<!-- Generator: Adobe Illustrator 21.1.0, SVG Export Plug-In . SVG Version: 6.00 Build 0)  -->
<svg version="1.1" id="Capa_1" xmlns="http://www.w3.org/2000/svg" xmlns:xlink="http://www.w3.org/1999/xlink" x="0px" y="0px"
	 viewBox="0 0 470 470" style="enable-background:new 0 0 470 470;" xml:space="preserve">
<style type="text/css">
	.st0{fill:#323A45;}
</style>
<g>
	<g>
		<path class="st0" d="M407.9,63.5H62.1c-4.1,0-7.5,3.4-7.5,7.5v47.7c0,4.1,3.4,7.5,7.5,7.5h345.8c4.1,0,7.5-3.4,7.5-7.5V71
			C415.4,66.9,412.1,63.5,407.9,63.5z M400.4,111.2H69.6V78.5h330.8L400.4,111.2L400.4,111.2z"/>
		<path class="st0" d="M469.5,212.1L443,141.4V46.9c0-4.1-3.4-7.5-7.5-7.5h-401c-4.1,0-7.5,3.4-7.5,7.5v94.5L0.5,212.1
			c-0.9,2.3-0.5,4.9,0.9,6.9c1.4,2,3.7,3.2,6.2,3.2H27v193.3H16c-4.1,0-7.5,3.4-7.5,7.5s3.4,7.5,7.5,7.5h438c4.1,0,7.5-3.4,7.5-7.5
			s-3.4-7.5-7.5-7.5h-11V222.3h19.5c2.5,0,4.8-1.2,6.2-3.2C470.1,217,470.4,214.4,469.5,212.1z M42,54.4h386v80.8H42V54.4z
			 M91.7,150.3l-14.2,57H55.6l17.8-57L91.7,150.3L91.7,150.3z M107.2,150.3h18.5l-10.7,57H92.9L107.2,150.3z M141,150.3h18.7
			l-7.1,57h-22.3L141,150.3z M174.8,150.3h18.8l-3.6,57h-22.4L174.8,150.3z M208.6,150.3h18.9v57h-22.4L208.6,150.3z M242.5,150.3
			h18.9l3.6,57h-22.4L242.5,150.3L242.5,150.3z M280,207.3l-3.6-57h18.8l7.1,57H280z M317.5,207.3l-7.1-57H329l10.7,57H317.5z
			 M355,207.3l-10.7-57h18.5l14.2,57H355z M392.5,207.3l-14.2-57h18.3l17.8,57H392.5z M39.7,150.3h18l-17.8,57H18.3L39.7,150.3z
			 M322.8,325.5h53v52.5h-53V325.5z M322.8,393.1h53v22.5h-53V393.1z M307.1,289.4l8.3-26.1h67.7l8.3,26.1H307.1z M375.8,304.4v6.1
			h-53v-6.1H375.8z M428,415.6h-37.2V304.4h10.9c2.4,0,4.6-1.1,6.1-3.1s1.8-4.4,1.1-6.7l-13.1-41.1c-1-3.1-3.9-5.2-7.1-5.2H310
			c-3.3,0-6.2,2.1-7.1,5.2l-13.1,41.1c-0.7,2.3-0.3,4.8,1.1,6.7s3.7,3.1,6.1,3.1h10.9v111.1H42V222.3h386V415.6z M430.1,207.3
			l-17.8-57h18l21.4,57H430.1z"/>
		<path class="st0" d="M66.6,304.4h9v78.9c0,4.1,3.4,7.5,7.5,7.5h163c4.1,0,7.5-3.4,7.5-7.5v-78.9h9c2.4,0,4.6-1.1,6.1-3.1
			s1.8-4.4,1.1-6.7l-13.1-41.1c-1-3.1-3.9-5.2-7.1-5.2H79.8c-3.3,0-6.2,2.1-7.1,5.2l-13.1,41.1c-0.7,2.3-0.3,4.8,1.1,6.7
			S64.3,304.4,66.6,304.4z M238.6,375.9h-148v-71.4h148L238.6,375.9L238.6,375.9z M85.2,263.4h158.8l8.3,26.1H76.9L85.2,263.4z"/>
	</g>
</g>
</svg>
