<?xml version="1.0" encoding="utf-8"?>
<!-- Generator: Adobe Illustrator 21.1.0, SVG Export Plug-In . SVG Version: 6.00 Build 0)  -->
<svg version="1.1" id="Capa_1" xmlns="http://www.w3.org/2000/svg" xmlns:xlink="http://www.w3.org/1999/xlink" x="0px" y="0px"
	 viewBox="0 0 427 427" style="enable-background:new 0 0 427 427;" xml:space="preserve">
<style type="text/css">
	.st0{fill:#323A45;}
</style>
<g>
	<path class="st0" d="M419.5,406.5H396V292c12.7-7.3,20.5-17.7,20.5-29.5s-7.8-22.2-20.5-29.5V106.5h22c2.4,0,4.6-1.1,6-3
		c1.4-1.9,1.9-4.3,1.2-6.6l-24.5-86c-0.9-3.2-3.9-5.4-7.2-5.4h-360c-3.4,0-6.3,2.2-7.2,5.4l-24.5,86c-0.6,2.3-0.2,4.7,1.2,6.6
		c1.4,1.9,3.6,3,6,3h22v300H7.5c-4.1,0-7.5,3.4-7.5,7.5s3.4,7.5,7.5,7.5h412c4.1,0,7.5-3.4,7.5-7.5S423.6,406.5,419.5,406.5z
		 M358,302.5v82H69v-82H358z M351.8,222.5c-23.4,0-43.4,7.4-54.7,18.6c-16.8-1.3-31.8-7.2-38.8-15.5c-2.5-3-3.8-6.1-3.8-9.2
		c0-14.7,26.1-25,49.5-25s49.5,10.3,49.5,25C353.5,218.4,353,220.5,351.8,222.5z M249.8,238.3c8.9,8.6,22.7,14.6,38.8,17
		c-0.7,2.3-1,4.8-1,7.2c0,6.7,2.5,13,7.1,18.5c-9,4.2-20.6,6.5-32.7,6.5c-23.4,0-49.5-10.3-49.5-25
		C212.4,252.8,226.3,241.4,249.8,238.3z M199,274c0,7.4-6.1,13.5-13.5,13.5S172,281.4,172,274s6.1-13.5,13.5-13.5S199,266.6,199,274
		z M122.3,251.2c-7.4,0-13.5-6.1-13.5-13.5s6.1-13.5,13.5-13.5c7.4,0,13.5,6.1,13.5,13.5S129.8,251.2,122.3,251.2z M88,274
		c0-7.4,6.1-13.5,13.5-13.5S115,266.6,115,274s-6.1,13.5-13.5,13.5S88,281.4,88,274z M130,274c0-7.4,6.1-13.5,13.5-13.5
		S157,266.6,157,274s-6.1,13.5-13.5,13.5S130,281.4,130,274z M164.3,251.2c-7.4,0-13.5-6.1-13.5-13.5s6.1-13.5,13.5-13.5
		s13.5,6.1,13.5,13.5S171.8,251.2,164.3,251.2z M143.5,214.6c-7.4,0-13.5-6.1-13.5-13.5s6.1-13.5,13.5-13.5s13.5,6.1,13.5,13.5
		S150.9,214.6,143.5,214.6z M101.5,214.6c-7.4,0-13.5-6.1-13.5-13.5s6.1-13.5,13.5-13.5s13.5,6.1,13.5,13.5S108.9,214.6,101.5,214.6
		z M93.8,237.7c0,7.4-6.1,13.5-13.5,13.5s-13.5-6.1-13.5-13.5s6.1-13.5,13.5-13.5S93.8,230.3,93.8,237.7z M59.5,260.5
		c7.4,0,13.5,6.1,13.5,13.5s-6.1,13.5-13.5,13.5S46,281.4,46,274S52.1,260.5,59.5,260.5z M352,287.5c-23.4,0-49.5-10.3-49.5-25
		s26.1-25,49.5-25s49.5,10.3,49.5,25S375.4,287.5,352,287.5z M408.1,91.5h-42.4l-14.5-71h36.6L408.1,91.5z M134.3,91.5l8.7-71h37
		l-2.9,71H134.3z M76.6,91.5l14.5-71h36.8l-8.7,71H76.6z M195,20.5h37l2.9,71h-42.8L195,20.5z M249.9,91.5l-2.9-71h37l8.7,71H249.9z
		 M307.8,91.5l-8.7-71h36.8l14.5,71H307.8z M39.2,20.5h36.6l-14.5,71H18.9L39.2,20.5z M381,106.5v120.1c-4.2-1.3-8.8-2.3-13.5-3
		c0.7-2.4,1-4.8,1-7.2c0-22.4-28.3-40-64.5-40s-64.5,17.6-64.5,40c0,2.8,0.5,5.5,1.3,8.2c-19.3,4-34,13.4-40.3,25.2
		c-2.7-1.7-5.8-3-9-3.7c0.8-2.7,1.3-5.5,1.3-8.4c0-13.6-9.5-24.9-22.2-27.8c0.9-2.8,1.4-5.7,1.4-8.8c0-15.7-12.8-28.5-28.5-28.5
		c-8.5,0-16.2,3.8-21.4,9.7c-4.8-6-12-9.7-20.6-9.7c-15.7,0-28.5,12.8-28.5,28.5c0,3,0.5,6,1.4,8.7c-12.9,2.7-22.5,14.2-22.5,27.9
		c0,3,0.5,5.8,1.3,8.5c-2.5,0.6-4.9,1.5-7.1,2.7V106.5H381z M46,406.5v-104h8V392c0,4.1,3.4,7.5,7.5,7.5h304c4.1,0,7.5-3.4,7.5-7.5
		v-89.5h8v104H46z"/>
</g>
</svg>
